<?xml version="1.0" encoding="iso-8859-1"?>
<!-- Uploaded to: SVG Repo, www.svgrepo.com, Generator: SVG Repo Mixer Tools -->
<svg fill="#000000" height="800px" width="800px" version="1.1" id="Layer_1" xmlns="http://www.w3.org/2000/svg" xmlns:xlink="http://www.w3.org/1999/xlink" 
	 viewBox="0 0 459.999 459.999" xml:space="preserve">
<g id="XMLID_12_">
	<g>
		<g>
			<path d="M429.331,165.968h-55.056L251.686,43.379c-5.793-5.793-13.494-8.983-21.686-8.983s-15.894,3.19-21.686,8.983
				L85.725,165.968H30.669C13.758,165.968,0,179.726,0,196.636v198.298c0,16.911,13.758,30.669,30.669,30.669H429.33
				c16.911,0,30.669-13.758,30.669-30.669V196.636C460,179.726,446.242,165.968,429.331,165.968z M228.228,63.292
				c0.607-0.606,1.299-0.734,1.772-0.734s1.165,0.128,1.772,0.734L334.098,165.62h-68.012c5.541-7.469,8.826-16.708,8.826-26.702
				c0-24.764-20.147-44.911-44.911-44.911c-24.764,0-44.911,20.147-44.911,44.911c0,9.994,3.284,19.233,8.826,26.702h-68.012
				L228.228,63.292z M246.748,138.917c0,9.235-7.513,16.748-16.748,16.748s-16.748-7.513-16.748-16.748
				c0-9.235,7.513-16.748,16.748-16.748S246.748,129.682,246.748,138.917z M247.834,396.932h-35.669v-72.082h35.669V396.932z
				 M429.331,397.44H275.998v-86.672c0-7.777-6.305-14.082-14.082-14.082h-63.832c-7.777,0-14.082,6.305-14.082,14.082v86.672
				H30.669c-1.382,0-2.506-1.124-2.506-2.506V196.636c0-1.382,1.124-2.506,2.506-2.506H429.33c1.382,0,2.506,1.124,2.506,2.506
				v198.298h0.001C431.837,396.316,430.713,397.44,429.331,397.44z"/>
			<path d="M119.385,269.31v-44.49c0-7.777-6.305-14.082-14.082-14.082h-44.49c-7.777,0-14.082,6.305-14.082,14.082v44.49
				c0,7.777,6.305,14.082,14.082,14.082h44.491C113.08,283.393,119.385,277.088,119.385,269.31z M74.894,255.229v-16.327h16.327
				v16.327H74.894z"/>
			<path d="M127.549,305.135H83.058c-7.777,0-14.082,6.305-14.082,14.082v44.491c0,7.777,6.305,14.082,14.082,14.082h44.491
				c7.777,0,14.082-6.305,14.082-14.082v-44.491C141.63,311.44,135.326,305.135,127.549,305.135z M113.467,349.625H97.14v-16.327
				h16.327V349.625z"/>
			<path d="M373.41,305.135h-44.491c-7.777,0-14.082,6.305-14.082,14.082v44.491c0,7.777,6.305,14.082,14.082,14.082h44.491
				c7.777,0,14.082-6.305,14.082-14.082v-44.491C387.491,311.44,381.187,305.135,373.41,305.135z M359.328,349.625h-16.327v-16.327
				h16.327V349.625z"/>
			<path d="M201.774,210.739h-44.491c-7.777,0-14.082,6.305-14.082,14.082v44.49c0,7.777,6.305,14.082,14.082,14.082h44.491
				c7.777,0,14.082-6.305,14.082-14.082v-44.49C215.856,217.044,209.551,210.739,201.774,210.739z M187.693,255.229h-16.327v-16.327
				h16.327V255.229z"/>
			<path d="M298.246,210.739h-44.491c-7.777,0-14.082,6.305-14.082,14.082v44.49c0,7.777,6.305,14.082,14.082,14.082h44.491
				c7.777,0,14.082-6.305,14.082-14.082v-44.49C312.327,217.044,306.022,210.739,298.246,210.739z M284.164,255.229h-16.327v-16.327
				h16.327V255.229z"/>
			<path d="M394.716,210.739h-44.491c-7.777,0-14.082,6.305-14.082,14.082v44.49c0,7.777,6.305,14.082,14.082,14.082h44.491
				c7.777,0,14.082-6.305,14.082-14.082v-44.49C408.798,217.044,402.493,210.739,394.716,210.739z M380.634,255.229h-16.327v-16.327
				h16.327V255.229z"/>
		</g>
	</g>
</g>
</svg>